<svg width="72" height="18" viewBox="0 0 72 18" fill="none" xmlns="http://www.w3.org/2000/svg">
<path d="M15.7366 16.1793C15.7885 15.8832 15.8333 15.6005 15.8919 15.3211C15.8999 15.2833 15.9735 15.2462 16.0231 15.2327C16.5676 15.0851 17.1125 14.9395 17.6595 14.8009C17.768 14.7734 17.7991 14.7273 17.7991 14.6165C17.7956 12.7208 17.7991 10.8251 17.793 8.92946C17.7924 8.70251 17.76 8.47267 17.7159 8.24955C17.5273 7.29851 16.7277 6.82955 15.9415 6.71208C14.751 6.53442 13.7225 6.90094 12.8509 7.71785C12.8025 7.76331 12.7795 7.85774 12.7795 7.92945C12.7753 9.3885 12.7766 10.8476 12.7766 12.3066C12.7766 13.0681 12.7788 13.8297 12.7744 14.5909C12.7737 14.701 12.8028 14.7461 12.9165 14.7705C13.4895 14.8915 14.0599 15.023 14.631 15.1517C14.6819 15.1633 14.7315 15.1802 14.7866 15.1959C14.7312 15.5282 14.6774 15.8521 14.6227 16.1806H8.24066C8.28708 15.8742 8.32741 15.5804 8.38119 15.2887C8.38919 15.2452 8.45641 15.1914 8.50507 15.1802C9.12768 15.0381 9.75221 14.9033 10.3761 14.766C10.4168 14.757 10.4568 14.7445 10.5003 14.7327V1.89381C9.78102 1.67261 9.05662 1.44982 8.31013 1.2203C8.36102 0.920038 8.4084 0.622977 8.46666 0.328478C8.47242 0.299348 8.54572 0.267337 8.58958 0.264136C9.3652 0.207157 10.1415 0.154339 10.9174 0.100881C11.364 0.0701506 11.8102 0.0391001 12.2567 0.00836976C12.5368 -0.0108367 12.7766 0.209398 12.7766 0.485331C12.7766 2.60477 12.7766 4.7242 12.7766 6.84332V7.07476C12.8749 6.99185 12.9495 6.93679 13.0151 6.87245C13.4607 6.4355 13.9229 6.01936 14.4456 5.67332C15.5516 4.94156 16.7511 4.80199 18.0113 5.13458C19.1064 5.42364 19.7447 6.15989 19.9336 7.26522C20.0155 7.74538 20.0626 8.23707 20.0661 8.72396C20.0808 10.6782 20.0735 12.6325 20.069 14.5867C20.069 14.7234 20.1036 14.7762 20.2438 14.8044C20.8071 14.918 21.3667 15.0519 21.9294 15.169C22.044 15.193 22.0623 15.2375 22.0421 15.3419C21.9957 15.582 21.9583 15.824 21.9211 16.0656C21.908 16.1508 21.8795 16.1937 21.78 16.1934C19.7962 16.1905 17.8129 16.1911 15.8291 16.1905C15.8083 16.1905 15.7879 16.1854 15.737 16.179L15.7366 16.1793Z" fill="#242429"/>
<path d="M69.3321 14.085C69.3862 14.1202 69.4483 14.1471 69.4931 14.1916C70.2639 14.9576 71.0328 15.7256 71.802 16.4935C72.0664 16.7576 72.0658 17.0009 71.8014 17.2662C71.7073 17.3604 71.6128 17.4545 71.5187 17.5486C71.2303 17.8364 70.9954 17.8383 70.7101 17.5534C69.9336 16.7781 69.1557 16.0037 68.3836 15.2243C68.2812 15.1209 68.2178 15.0975 68.0817 15.1878C66.9761 15.9218 65.752 16.215 64.436 16.0914C61.9606 15.859 59.9087 13.9845 59.4747 11.5334C58.9049 8.3157 61.0525 5.5871 63.8909 5.01698C66.9447 4.40366 69.9937 6.44947 70.513 9.50138C70.7902 11.1294 70.4384 12.6164 69.4348 13.9397C69.4156 13.965 69.3964 13.9906 69.3788 14.0171C69.3734 14.0251 69.3734 14.037 69.3708 14.0469C69.358 14.0597 69.3452 14.0725 69.3324 14.0856L69.3321 14.085ZM61.3895 10.5923C61.395 11.7773 61.7266 12.8087 62.4853 13.683C63.0736 14.3606 63.8108 14.7825 64.7126 14.8603C65.6902 14.9448 66.5446 14.6237 67.2414 13.9432C68.3257 12.8852 68.7011 11.5709 68.5577 10.0885C68.4665 9.14606 68.1205 8.3077 67.4979 7.59097C66.9284 6.93539 66.2181 6.51093 65.3486 6.42098C64.1732 6.29966 63.209 6.74301 62.4507 7.62907C61.7145 8.48984 61.3966 9.50714 61.3895 10.592V10.5923Z" fill="url(#paint0_linear_22_5282)"/>
<path d="M31.0005 14.2391C31.0875 14.4357 31.1794 14.6271 31.2534 14.8256C31.2678 14.8643 31.2249 14.9437 31.1858 14.9796C30.5827 15.5295 29.8855 15.9223 29.1131 16.1777C27.8897 16.5827 26.6412 16.7232 25.3864 16.3666C23.459 15.8189 22.2926 14.5045 21.8127 12.5973C21.4571 11.1834 21.4734 9.75283 22.0938 8.40646C23.0288 6.37633 24.6399 5.22714 26.8707 5.00019C27.9284 4.89263 28.907 5.14744 29.7188 5.87568C30.3727 6.46244 30.7117 7.21661 30.8516 8.07258C30.9825 8.8751 30.8823 9.6632 30.7249 10.4497C30.7063 10.5422 30.6656 10.5688 30.575 10.5691C29.994 10.572 29.413 10.5806 28.8321 10.5864C27.7341 10.5973 26.6361 10.6091 25.5381 10.6178C25.049 10.6216 24.5596 10.6184 24.0567 10.6184C24.0746 11.1818 24.1866 11.692 24.3566 12.1914C24.6585 13.0775 25.1566 13.8211 25.938 14.3579C26.4869 14.7347 27.1035 14.8835 27.7613 14.9136C28.8695 14.9645 29.9259 14.7801 30.9156 14.2644C30.9384 14.2526 30.9656 14.2494 31.0011 14.2391H31.0005ZM24.0807 9.6552C24.1409 9.6552 24.1818 9.65744 24.2228 9.65488C25.5724 9.56749 26.9216 9.4785 28.2715 9.39335C28.3753 9.38695 28.4085 9.33573 28.4198 9.2461C28.4867 8.71568 28.4995 8.18526 28.3874 7.65932C28.2392 6.96277 27.8788 6.44355 27.1486 6.26685C26.3262 6.06807 25.6271 6.31135 25.0682 6.92628C24.3755 7.68877 24.1476 8.63085 24.0807 9.65488V9.6552Z" fill="#242429"/>
<path d="M58.2518 10.5138C58.2518 13.6396 55.738 16.1275 52.5811 16.1269C49.5215 16.1262 47.0042 13.5874 47.009 10.507C47.0141 7.40264 49.5426 4.87858 52.6349 4.89107C55.7521 4.90387 58.2518 7.40616 58.2518 10.5134V10.5138ZM52.5827 6.4055C52.4319 6.42311 52.2283 6.43207 52.0318 6.47272C50.9598 6.69456 50.1973 7.33861 49.6608 8.26277C49.1191 9.19588 48.9479 10.2077 49.0823 11.275C49.2027 12.2318 49.5666 13.0798 50.2309 13.784C51.5215 15.1525 53.4867 15.2338 54.8359 13.978C55.6605 13.2107 56.0866 12.2468 56.198 11.1377C56.3091 10.0323 56.0933 8.99517 55.48 8.0627C54.8107 7.0454 53.8839 6.44583 52.5827 6.4055Z" fill="#242429"/>
<path d="M5.89521 8.85736C5.79534 8.48059 5.71307 8.12367 5.60488 7.77476C5.46851 7.33461 5.26812 6.92423 4.95314 6.57883C4.52195 6.10603 3.98737 5.92997 3.36316 6.05225C2.82154 6.15821 2.45533 6.4876 2.27799 7.00618C2.09201 7.55036 2.20213 8.04333 2.5885 8.47355C2.8878 8.8071 3.24568 9.06415 3.63685 9.27542C4.44704 9.71333 5.26268 10.1407 6.07127 10.5811C6.63082 10.8859 7.14492 11.2511 7.5633 11.7419C8.48585 12.8241 8.43655 14.2413 7.43782 15.2573C6.72654 15.981 5.84752 16.3825 4.86287 16.5313C3.60132 16.7221 2.36378 16.5992 1.18994 16.0665C0.955625 15.9602 0.732829 15.8111 0.534362 15.6459C-0.0325494 15.1744 -0.150989 14.6158 0.191526 13.8811C0.452094 13.3225 0.924254 13.0277 1.53246 12.9435C1.64226 12.9285 1.69828 12.9567 1.74245 13.0697C1.97677 13.6692 2.28599 14.2227 2.75399 14.6788C3.57955 15.4839 4.69097 15.5633 5.59431 15.143C6.27966 14.8242 6.45636 13.9938 5.94899 13.4311C5.71051 13.1663 5.42145 12.9282 5.11479 12.747C4.38622 12.3171 3.62981 11.9349 2.89164 11.521C2.31064 11.1951 1.73925 10.8526 1.27029 10.367C0.801652 9.88107 0.44025 9.3404 0.363104 8.64993C0.245945 7.60478 0.631995 6.74785 1.38361 6.04969C2.18644 5.30416 3.16533 4.99526 4.24794 4.97253C5.01332 4.95652 5.75789 5.04615 6.45957 5.37458C6.79152 5.52984 7.0857 5.73567 7.3341 6.0068C8.07419 6.81507 8.02169 8.3279 6.51142 8.74436C6.30847 8.80038 6.09592 8.82087 5.89553 8.8564L5.89521 8.85736Z" fill="#242429"/>
<path d="M41.0457 16.182C41.0953 15.8609 41.1389 15.5565 41.1936 15.254C41.1994 15.222 41.2666 15.1877 41.3108 15.1778C41.9234 15.0392 42.5364 14.9012 43.1511 14.7716C43.2596 14.7485 43.2996 14.713 43.2996 14.5971C43.2967 10.4059 43.2967 6.21477 43.2996 2.02391C43.2996 1.91732 43.2602 1.8789 43.1645 1.84977C42.5432 1.66155 41.9238 1.46724 41.304 1.27486C41.2486 1.25757 41.1936 1.23901 41.128 1.21756C41.183 0.901612 41.2365 0.593669 41.2922 0.27292C41.6555 0.246671 42.0153 0.219782 42.3751 0.194494C43.2519 0.132713 44.1303 0.0853367 45.0051 0.00274882C45.2794 -0.0231799 45.4117 0.139115 45.5688 0.287645C45.6008 0.318055 45.5932 0.397122 45.5932 0.453461C45.5944 1.91251 45.5941 3.37189 45.5941 4.83094C45.5941 8.06883 45.5954 11.3067 45.5906 14.5446C45.5906 14.6967 45.6296 14.7533 45.7823 14.7821C46.3893 14.8958 46.9933 15.0254 47.598 15.1499C47.6547 15.1615 47.71 15.1788 47.7715 15.1948C47.7164 15.5264 47.6627 15.8507 47.6073 16.182H41.0463H41.0457Z" fill="#242429"/>
<path d="M39.7776 15.1165C39.7321 15.4719 39.6873 15.8233 39.6412 16.1819H32.0649C32.1097 15.8861 32.1497 15.5986 32.2013 15.3131C32.207 15.2811 32.2746 15.2481 32.3191 15.2372C32.9343 15.0874 33.5502 14.9389 34.1674 14.7971C34.2765 14.7721 34.3092 14.7282 34.3092 14.6162C34.3057 12.1671 34.3057 9.71759 34.3092 7.26812C34.3092 7.15289 34.2781 7.10263 34.1616 7.0719C33.4679 6.8888 32.7765 6.69609 32.0652 6.50147C32.1267 6.1996 32.1827 5.90382 32.2522 5.61124C32.2602 5.57699 32.3408 5.54402 32.3911 5.53794C32.9462 5.46912 33.5015 5.40509 34.0572 5.34075C34.7292 5.26297 35.4011 5.18486 36.0736 5.10964C36.2762 5.08691 36.5189 5.34331 36.4994 5.54242C36.4116 6.4368 36.3278 7.33119 36.2426 8.22429C36.4725 8.28479 36.4875 8.27807 36.5608 8.07128C36.8563 7.23931 37.2731 6.47906 37.8982 5.84588C38.3845 5.35356 38.9431 4.98703 39.6499 4.90541C40.0948 4.85419 40.5116 4.93486 40.8666 5.22647C41.3993 5.66406 41.5404 6.35806 41.2209 6.96946C41.1624 7.08182 41.0916 7.1913 41.0084 7.28669C40.9005 7.41057 40.791 7.54854 40.6521 7.62601C40.4917 7.71532 40.3749 7.52325 40.227 7.48516C39.8727 7.39425 39.5257 7.263 39.1665 7.20506C38.5698 7.10839 38.0868 7.38817 37.6645 7.77101C37.0435 8.33408 36.7148 9.05465 36.5861 9.87317C36.5797 9.91478 36.5819 9.95799 36.5819 10.0006C36.5819 11.5022 36.5835 13.0035 36.5787 14.5051C36.5784 14.6409 36.6159 14.6847 36.7516 14.7017C37.7449 14.8268 38.7372 14.961 39.7296 15.0928C39.7395 15.0941 39.7485 15.1018 39.7782 15.1162L39.7776 15.1165Z" fill="#242429"/>
<defs>
<linearGradient id="paint0_linear_22_5282" x1="51.5" y1="-2.11523" x2="84.8035" y2="9.01273" gradientUnits="userSpaceOnUse">
<stop stop-color="#7209B7"/>
<stop offset="1" stop-color="#F72585"/>
</linearGradient>
</defs>
</svg>
