<?xml version="1.0" encoding="UTF-8"?>
<svg version="1.1" xmlns="http://www.w3.org/2000/svg" width="256" height="256">
<path d="M0 0 C2.18149851 -0.00135773 4.36299678 -0.00313974 6.54449463 -0.00531006 C12.42886344 -0.00984072 18.31321458 -0.00811276 24.19758368 -0.00493097 C30.38222136 -0.00238405 36.56685761 -0.00475144 42.75149536 -0.00631714 C53.13609079 -0.00813232 63.52067909 -0.00574991 73.90527344 -0.00097656 C85.87436741 0.00446193 97.84344112 0.00270377 109.81253517 -0.00280297 C120.12554598 -0.0073561 130.43855169 -0.00797382 140.75156319 -0.0053643 C146.89490356 -0.00381324 153.03823594 -0.00357538 159.18157578 -0.00690079 C164.96173898 -0.00981147 170.74188044 -0.00774564 176.52204132 -0.00200653 C178.63058817 -0.00069584 180.73913687 -0.0010439 182.84768295 -0.0032692 C185.7508453 -0.00604817 188.65394021 -0.00251902 191.55709839 0.00241089 C192.77483187 -0.00093519 192.77483187 -0.00093519 194.01716602 -0.00434887 C202.39601227 0.02279799 210.59141543 0.63451341 219.00439453 1.12939453 C219.00439453 85.27939453 219.00439453 169.42939453 219.00439453 256.12939453 C176.95001953 256.15001953 134.89564453 256.17064453 91.56689453 256.19189453 C78.26320557 256.20099854 64.9595166 256.21010254 51.25268555 256.21948242 C35.07067871 256.22399902 35.07067871 256.22399902 27.50743103 256.22483826 C22.1983038 256.22577404 16.88918668 256.22945584 11.58006287 256.23497009 C4.82204135 256.24197891 -1.93596307 256.24389225 -8.69398892 256.24246681 C-11.18298712 256.24276518 -13.6719858 256.24476878 -16.16098106 256.24860966 C-19.50552777 256.25353378 -22.85001697 256.2524029 -26.19456482 256.24964905 C-27.18356309 256.25256171 -28.17256136 256.25547438 -29.19152927 256.2584753 C-30.0820669 256.25648443 -30.97260452 256.25449356 -31.89012814 256.25244236 C-32.66437789 256.25282208 -33.43862764 256.2532018 -34.23633951 256.25359303 C-35.99560547 256.12939453 -35.99560547 256.12939453 -36.99560547 255.12939453 C-37.0920032 253.76890187 -37.11932484 252.40343792 -37.1186533 251.03953457 C-37.12064435 250.15276104 -37.12263539 249.26598752 -37.12468678 248.35234207 C-37.12177394 247.36695404 -37.11886109 246.38156602 -37.11585999 245.36631775 C-37.11671441 244.32824102 -37.11756884 243.2901643 -37.11844915 242.22063071 C-37.12010706 238.71355766 -37.11457752 235.20653159 -37.10913086 231.69946289 C-37.10884903 229.19688417 -37.10900664 226.69430536 -37.10957336 224.19172668 C-37.10980169 218.78911165 -37.10695023 213.38651195 -37.10133553 207.98390007 C-37.09322279 200.17254655 -37.09060554 192.36119887 -37.08934753 184.54984159 C-37.08715666 171.87770685 -37.08049561 159.20557852 -37.07104492 146.53344727 C-37.06187172 134.22062207 -37.05479044 121.90779862 -37.05053711 109.5949707 C-37.05027439 108.83653655 -37.05001166 108.0781024 -37.04974098 107.29668539 C-37.04843598 103.49200194 -37.04717226 99.68731847 -37.04592907 95.882635 C-37.03555535 64.29821684 -37.01786195 32.71380666 -36.99560547 1.12939453 C-24.65502576 0.0754077 -12.37858662 -0.01303645 0 0 Z " fill="#AE1893" transform="translate(36.99560546875,-0.12939453125)"/>
<path d="M0 0 C14.69467306 11.32280757 24.86704663 26.4688536 27.7578125 45.125 C28.9742075 62.0765289 25.31441283 74.7768505 17.46484375 89.69140625 C15.6351687 93.29364679 15.6351687 93.29364679 14.7578125 97.125 C16.53151557 99.25101395 18.23296078 101.0175596 20.2578125 102.875 C21.38208043 103.94856374 22.50448538 105.0240819 23.625 106.1015625 C24.16995117 106.62137695 24.71490234 107.14119141 25.27636719 107.67675781 C27.6714179 110.01812908 29.80224364 112.55822765 31.953125 115.12109375 C35.0431428 118.55221741 38.50123797 121.62379465 41.9140625 124.73046875 C43.7578125 127.125 43.7578125 127.125 43.7734375 129.65625 C42.58562681 132.54354367 41.21518482 134.23427688 39.0078125 136.4375 C38.33234375 137.13488281 37.656875 137.83226562 36.9609375 138.55078125 C34.7578125 140.125 34.7578125 140.125 32.54711914 140.61547852 C28.16310881 139.84458339 25.94926409 136.97209121 22.92578125 133.8515625 C22.28917068 133.21262054 21.65256012 132.57367859 20.99665833 131.91537476 C19.6553534 130.56433552 18.32008119 129.20728396 16.99047852 127.84472656 C14.9478147 125.75256284 12.88698793 123.67975004 10.82226562 121.609375 C9.52233408 120.29536152 8.22346822 118.98029273 6.92578125 117.6640625 C5.99779976 116.72803696 5.99779976 116.72803696 5.05107117 115.77310181 C0.7578125 111.35824441 0.7578125 111.35824441 0.7578125 109.125 C-0.3765625 109.66769531 -1.5109375 110.21039063 -2.6796875 110.76953125 C-4.20043982 111.49235797 -5.72127775 112.2150046 -7.2421875 112.9375 C-7.98597656 113.29392578 -8.72976562 113.65035156 -9.49609375 114.01757812 C-11.73416808 115.07823074 -13.98551704 116.10460771 -16.2421875 117.125 C-16.86391846 117.42720459 -17.48564941 117.72940918 -18.1262207 118.04077148 C-24.37325605 120.79867925 -30.69512889 120.6209726 -37.4296875 120.5625 C-38.63625 120.55492676 -39.8428125 120.54735352 -41.0859375 120.53955078 C-49.49710347 120.38349312 -56.55925645 119.76668649 -64.2421875 116.125 C-65.16128906 115.72410156 -66.08039063 115.32320313 -67.02734375 114.91015625 C-82.59494428 107.35625726 -93.27158468 93.57686261 -100.2421875 78.125 C-100.75845703 76.98804688 -100.75845703 76.98804688 -101.28515625 75.828125 C-103.74153589 68.89010578 -104.60595898 62.14658316 -104.5546875 54.8125 C-104.55049805 53.98435791 -104.54630859 53.15621582 -104.54199219 52.30297852 C-104.41874024 45.5732909 -103.43405454 39.51000398 -101.2421875 33.125 C-100.98695312 32.30257812 -100.73171875 31.48015625 -100.46875 30.6328125 C-94.98426241 14.88377933 -82.74786158 2.54948539 -68.375 -5.40625 C-63.17347779 -7.84486889 -57.79360573 -9.44088362 -52.2421875 -10.875 C-51.62601563 -11.06964844 -51.00984375 -11.26429687 -50.375 -11.46484375 C-33.09310176 -14.78828572 -14.34107788 -9.70008766 0 0 Z " fill="#FDFAFC" transform="translate(167.2421875,70.875)"/>
<path d="M0 0 C9.04408744 7.48892716 15.03573301 17.51479318 16.71484375 29.25 C17.02372912 33.14780517 17.12300061 37.0283064 17.15234375 40.9375 C17.16249512 41.89938232 17.17264648 42.86126465 17.18310547 43.85229492 C17.00619961 58.37975404 11.01007632 69.48818533 1.20703125 79.984375 C-7.74983189 88.12697786 -18.0819168 90.86340556 -29.9140625 90.6171875 C-41.5628082 89.34837858 -50.09116331 82.60042899 -57.3203125 73.76171875 C-66.87141393 60.72274164 -69.71967334 47.15244621 -68.28515625 31.25 C-65.62701533 17.48514054 -58.68786021 5.72832937 -47.5390625 -2.8671875 C-31.64236918 -13.49438054 -14.88198421 -11.39680158 0 0 Z " fill="#AF1A94" transform="translate(154.28515625,85.75)"/>
<path d="M0 0 C2.18149851 -0.00135773 4.36299678 -0.00313974 6.54449463 -0.00531006 C12.42886344 -0.00984072 18.31321458 -0.00811276 24.19758368 -0.00493097 C30.38222136 -0.00238405 36.56685761 -0.00475144 42.75149536 -0.00631714 C53.13609079 -0.00813232 63.52067909 -0.00574991 73.90527344 -0.00097656 C85.87436741 0.00446193 97.84344112 0.00270377 109.81253517 -0.00280297 C120.12554598 -0.0073561 130.43855169 -0.00797382 140.75156319 -0.0053643 C146.89490356 -0.00381324 153.03823594 -0.00357538 159.18157578 -0.00690079 C164.96173898 -0.00981147 170.74188044 -0.00774564 176.52204132 -0.00200653 C178.63058817 -0.00069584 180.73913687 -0.0010439 182.84768295 -0.0032692 C185.7508453 -0.00604817 188.65394021 -0.00251902 191.55709839 0.00241089 C192.77483187 -0.00093519 192.77483187 -0.00093519 194.01716602 -0.00434887 C202.39601227 0.02279799 210.59141543 0.63451341 219.00439453 1.12939453 C219.00439453 85.27939453 219.00439453 169.42939453 219.00439453 256.12939453 C176.95001953 256.15001953 134.89564453 256.17064453 91.56689453 256.19189453 C78.26320557 256.20099854 64.9595166 256.21010254 51.25268555 256.21948242 C35.07067871 256.22399902 35.07067871 256.22399902 27.50743103 256.22483826 C22.1983038 256.22577404 16.88918668 256.22945584 11.58006287 256.23497009 C4.82204135 256.24197891 -1.93596307 256.24389225 -8.69398892 256.24246681 C-11.18298712 256.24276518 -13.6719858 256.24476878 -16.16098106 256.24860966 C-19.50552777 256.25353378 -22.85001697 256.2524029 -26.19456482 256.24964905 C-27.18356309 256.25256171 -28.17256136 256.25547438 -29.19152927 256.2584753 C-30.0820669 256.25648443 -30.97260452 256.25449356 -31.89012814 256.25244236 C-32.66437789 256.25282208 -33.43862764 256.2532018 -34.23633951 256.25359303 C-35.99560547 256.12939453 -35.99560547 256.12939453 -36.99560547 255.12939453 C-37.0920032 253.76890187 -37.11932484 252.40343792 -37.1186533 251.03953457 C-37.12064435 250.15276104 -37.12263539 249.26598752 -37.12468678 248.35234207 C-37.12177394 247.36695404 -37.11886109 246.38156602 -37.11585999 245.36631775 C-37.11671441 244.32824102 -37.11756884 243.2901643 -37.11844915 242.22063071 C-37.12010706 238.71355766 -37.11457752 235.20653159 -37.10913086 231.69946289 C-37.10884903 229.19688417 -37.10900664 226.69430536 -37.10957336 224.19172668 C-37.10980169 218.78911165 -37.10695023 213.38651195 -37.10133553 207.98390007 C-37.09322279 200.17254655 -37.09060554 192.36119887 -37.08934753 184.54984159 C-37.08715666 171.87770685 -37.08049561 159.20557852 -37.07104492 146.53344727 C-37.06187172 134.22062207 -37.05479044 121.90779862 -37.05053711 109.5949707 C-37.05027439 108.83653655 -37.05001166 108.0781024 -37.04974098 107.29668539 C-37.04843598 103.49200194 -37.04717226 99.68731847 -37.04592907 95.882635 C-37.03555535 64.29821684 -37.01786195 32.71380666 -36.99560547 1.12939453 C-24.65502576 0.0754077 -12.37858662 -0.01303645 0 0 Z M-32.99560547 5.12939453 C-33.01839528 36.45131754 -33.03610336 67.77323837 -33.0466708 99.09516769 C-33.04792157 102.78911246 -33.04921589 106.48305721 -33.05053711 110.17700195 C-33.05079942 110.91243088 -33.05106173 111.6478598 -33.05133199 112.40557445 C-33.0556888 124.32917622 -33.06357641 136.25277319 -33.07275826 148.1763721 C-33.08209449 160.40198079 -33.08766101 172.62758696 -33.08969396 184.85319906 C-33.09106926 192.40312413 -33.09542019 199.95303563 -33.10352194 207.50295652 C-33.10940971 213.28248372 -33.11006451 219.06200215 -33.10871315 224.84153175 C-33.10898967 227.21963459 -33.11099733 229.59773791 -33.11481094 231.97583771 C-33.11974147 235.20725409 -33.11860614 238.4386111 -33.11585999 241.67002869 C-33.11877283 242.62428913 -33.12168567 243.57854957 -33.12468678 244.56172699 C-33.53620177 248.66989119 -33.53620177 248.66989119 -31.99560547 252.12939453 C-28.83762207 252.22969524 -25.70142724 252.26376681 -22.54296875 252.25637817 C-21.03591464 252.25871816 -21.03591464 252.25871816 -19.49841499 252.26110542 C-16.10423476 252.26512013 -12.7100986 252.26192396 -9.31591797 252.25878906 C-6.89377821 252.26014289 -4.47163867 252.26192272 -2.04949951 252.26409912 C3.86296336 252.2681995 9.77541462 252.26758016 15.68787718 252.26468648 C20.49095482 252.26243262 25.29402891 252.26211985 30.09710693 252.2632103 C30.77942159 252.26336353 31.46173624 252.26351676 32.16472709 252.26367464 C33.55062183 252.26399435 34.93651656 252.26431856 36.3224113 252.26464723 C49.33304368 252.26750215 62.34366903 252.26421481 75.35430026 252.25884686 C86.52998625 252.25437881 97.70566185 252.25515474 108.88134766 252.25976562 C121.84385665 252.26511117 134.80635946 252.26722746 147.7688694 252.26415336 C149.14980698 252.2638348 150.53074455 252.26352043 151.91168213 252.2632103 C152.59121755 252.26305602 153.27075298 252.26290175 153.97088039 252.2627428 C158.77093267 252.26187758 163.57098104 252.26334061 168.37103271 252.26568985 C174.82563579 252.26877927 181.28022381 252.26659533 187.73482513 252.26079559 C190.11131508 252.25946728 192.48780666 252.25986331 194.86429596 252.26205826 C198.09347272 252.26476697 201.32258521 252.26139207 204.55175781 252.25637817 C205.98212529 252.25972426 205.98212529 252.25972426 207.44138908 252.26313794 C211.54721134 252.67093879 211.54721134 252.67093879 215.00439453 251.12939453 C215.10468957 247.98403683 215.13876743 244.86055571 215.13137817 241.71472168 C215.13293816 240.71410249 215.13449816 239.7134833 215.13610542 238.68254232 C215.14012011 235.30218156 215.13692397 231.92186507 215.13378906 228.54150391 C215.1351429 226.12921624 215.13692273 223.71692879 215.13909912 221.30464172 C215.14319949 215.4162423 215.14258016 209.52785454 215.13968648 203.63945544 C215.13743261 198.85592394 215.13711985 194.07239601 215.1382103 189.28886414 C215.13844015 188.2695552 215.13844015 188.2695552 215.13867464 187.22965416 C215.13899435 185.84939643 215.13931856 184.46913869 215.13964723 183.08888096 C215.14250215 170.13118369 215.13921482 157.17349348 215.13384686 144.21579736 C215.12937881 133.08559314 215.13015474 121.95539935 215.13476562 110.82519531 C215.14011118 97.91542403 215.14222746 85.00565894 215.13915336 72.09588671 C215.1388348 70.72056611 215.13852043 69.34524552 215.1382103 67.96992493 C215.13805602 67.29315361 215.13790175 66.6163823 215.1377428 65.91910276 C215.13687758 61.13858714 215.13834061 56.35807544 215.14068985 51.57756042 C215.14377928 45.14922215 215.14159532 38.72089899 215.13579559 32.29256248 C215.13446728 29.92574789 215.1348633 27.55893164 215.13705826 25.19211769 C215.13976698 21.97607802 215.13639205 18.76010288 215.13137817 15.54406738 C215.1336089 14.59438001 215.13583962 13.64469264 215.13813794 12.66622686 C215.54374155 8.5742825 215.54374155 8.5742825 214.00439453 5.12939453 C210.83150103 5.03131291 207.68035552 4.99949301 204.50706482 5.00914001 C203.49757296 5.00828559 202.4880811 5.00743116 201.44799858 5.00655085 C198.0376618 5.004893 194.62737333 5.01042238 191.21704102 5.01586914 C188.78342693 5.01615097 186.34981276 5.01599336 183.91619873 5.01542664 C178.66254991 5.01519832 173.40891637 5.01804969 168.15527153 5.02366447 C160.55930162 5.03177734 152.96333771 5.03439447 145.36736394 5.03565247 C133.0446292 5.03784332 120.72190107 5.04450432 108.39916992 5.05395508 C96.42586297 5.06312832 84.4525578 5.07020958 72.47924805 5.07446289 C71.74172286 5.07472561 71.00419768 5.07498834 70.24432325 5.07525902 C66.54452829 5.07656402 62.84473333 5.07782774 59.14493835 5.07907093 C28.43141894 5.08944459 -2.28209226 5.10713794 -32.99560547 5.12939453 Z " fill="#181A18" transform="translate(36.99560546875,-0.12939453125)"/>
<path d="M0 0 C2.18149851 -0.00135773 4.36299678 -0.00313974 6.54449463 -0.00531006 C12.42886344 -0.00984072 18.31321458 -0.00811276 24.19758368 -0.00493097 C30.38222136 -0.00238405 36.56685761 -0.00475144 42.75149536 -0.00631714 C53.13609079 -0.00813232 63.52067909 -0.00574991 73.90527344 -0.00097656 C85.87436741 0.00446193 97.84344112 0.00270377 109.81253517 -0.00280297 C120.12554598 -0.0073561 130.43855169 -0.00797382 140.75156319 -0.0053643 C146.89490356 -0.00381324 153.03823594 -0.00357538 159.18157578 -0.00690079 C164.96173898 -0.00981147 170.74188044 -0.00774564 176.52204132 -0.00200653 C178.63058817 -0.00069584 180.73913687 -0.0010439 182.84768295 -0.0032692 C185.7508453 -0.00604817 188.65394021 -0.00251902 191.55709839 0.00241089 C192.77483187 -0.00093519 192.77483187 -0.00093519 194.01716602 -0.00434887 C202.39601227 0.02279799 210.59141543 0.63451341 219.00439453 1.12939453 C219.00439453 85.27939453 219.00439453 169.42939453 219.00439453 256.12939453 C176.95001953 256.15001953 134.89564453 256.17064453 91.56689453 256.19189453 C78.26320557 256.20099854 64.9595166 256.21010254 51.25268555 256.21948242 C35.07067871 256.22399902 35.07067871 256.22399902 27.50743103 256.22483826 C22.1983038 256.22577404 16.88918668 256.22945584 11.58006287 256.23497009 C4.82204135 256.24197891 -1.93596307 256.24389225 -8.69398892 256.24246681 C-11.18298712 256.24276518 -13.6719858 256.24476878 -16.16098106 256.24860966 C-19.50552777 256.25353378 -22.85001697 256.2524029 -26.19456482 256.24964905 C-27.18356309 256.25256171 -28.17256136 256.25547438 -29.19152927 256.2584753 C-30.0820669 256.25648443 -30.97260452 256.25449356 -31.89012814 256.25244236 C-32.66437789 256.25282208 -33.43862764 256.2532018 -34.23633951 256.25359303 C-35.99560547 256.12939453 -35.99560547 256.12939453 -36.99560547 255.12939453 C-37.0920032 253.76890187 -37.11932484 252.40343792 -37.1186533 251.03953457 C-37.12064435 250.15276104 -37.12263539 249.26598752 -37.12468678 248.35234207 C-37.12177394 247.36695404 -37.11886109 246.38156602 -37.11585999 245.36631775 C-37.11671441 244.32824102 -37.11756884 243.2901643 -37.11844915 242.22063071 C-37.12010706 238.71355766 -37.11457752 235.20653159 -37.10913086 231.69946289 C-37.10884903 229.19688417 -37.10900664 226.69430536 -37.10957336 224.19172668 C-37.10980169 218.78911165 -37.10695023 213.38651195 -37.10133553 207.98390007 C-37.09322279 200.17254655 -37.09060554 192.36119887 -37.08934753 184.54984159 C-37.08715666 171.87770685 -37.08049561 159.20557852 -37.07104492 146.53344727 C-37.06187172 134.22062207 -37.05479044 121.90779862 -37.05053711 109.5949707 C-37.05027439 108.83653655 -37.05001166 108.0781024 -37.04974098 107.29668539 C-37.04843598 103.49200194 -37.04717226 99.68731847 -37.04592907 95.882635 C-37.03555535 64.29821684 -37.01786195 32.71380666 -36.99560547 1.12939453 C-24.65502576 0.0754077 -12.37858662 -0.01303645 0 0 Z M-35.99560547 3.12939453 C-36.09457699 4.46090461 -36.1248271 5.79760622 -36.12703323 7.1327877 C-36.13087438 8.00029415 -36.13471552 8.86780061 -36.13867307 9.76159513 C-36.13780658 10.72548205 -36.1369401 11.68936898 -36.13604736 12.6824646 C-36.13901849 13.69800686 -36.14198961 14.71354913 -36.14505076 15.7598654 C-36.15377945 19.19082988 -36.15524951 22.62175964 -36.15673828 26.05273438 C-36.16136349 28.50118587 -36.16638774 30.94963663 -36.17178345 33.39808655 C-36.18493759 40.06950494 -36.19139446 46.74090963 -36.19579411 53.41233778 C-36.19855335 57.57515179 -36.20279012 61.73796347 -36.20729828 65.90077591 C-36.2194935 77.41811413 -36.22979227 88.93545048 -36.23317337 100.45279503 C-36.23339294 101.19044042 -36.2336125 101.92808582 -36.23383872 102.6880841 C-36.234057 103.42753167 -36.23427528 104.16697925 -36.23450017 104.92883432 C-36.23494364 106.42732835 -36.23539021 107.92582238 -36.23583984 109.42431641 C-36.23606127 110.16762705 -36.2362827 110.9109377 -36.23651084 111.67677291 C-36.24046009 123.72508262 -36.25791684 135.77333189 -36.28119937 147.82161824 C-36.30489025 160.18061243 -36.31737419 172.53957627 -36.31854129 184.89859354 C-36.31945934 191.84209076 -36.32524407 198.78550925 -36.3433609 205.72898483 C-36.3603345 212.25749122 -36.36203147 218.7858742 -36.35322189 225.31440544 C-36.35244774 227.71586062 -36.35684351 230.11732362 -36.36668015 232.51875877 C-36.37928558 235.78680649 -36.37358514 239.0543142 -36.36309814 242.32235718 C-36.37115455 243.28178266 -36.37921095 244.24120814 -36.38751149 245.22970712 C-36.38092165 246.10242907 -36.3743318 246.97515101 -36.36754227 247.87431908 C-36.36813936 248.62904074 -36.36873644 249.3837624 -36.36935163 250.16135442 C-35.88065899 252.73466974 -35.10743174 253.60419125 -32.99560547 255.12939453 C-30.99649725 255.57667986 -30.99649725 255.57667986 -28.76173401 255.50691795 C-27.89372886 255.5147412 -27.02572371 255.52256444 -26.13141537 255.53062475 C-25.17724507 255.52393258 -24.22307478 255.51724042 -23.23999023 255.51034546 C-22.22682267 255.51502543 -21.21365511 255.5197054 -20.1697855 255.52452719 C-16.75872961 255.53653848 -13.34807093 255.52699589 -9.93701172 255.51757812 C-7.49811569 255.52164109 -5.05922149 255.52698142 -2.62033081 255.5335083 C3.32600098 255.54579484 9.2721756 255.54395916 15.21850133 255.53527038 C20.05012651 255.52850199 24.88171983 255.52757344 29.71334839 255.53084183 C30.40036534 255.53130153 31.08738229 255.53176123 31.79521793 255.53223485 C33.19077215 255.53319401 34.58632635 255.53416665 35.98188055 255.53515263 C49.07558345 255.54371232 62.16922339 255.53386334 75.26291597 255.51775153 C86.50392213 255.50434781 97.74483536 255.50667574 108.98583984 255.52050781 C122.03189786 255.53655343 135.07790067 255.54288829 148.12396717 255.53367102 C149.51445833 255.53271535 150.9049495 255.53177224 152.29544067 255.53084183 C152.97963292 255.530379 153.66382517 255.52991617 154.36875051 255.52943932 C159.19595089 255.52684637 164.02311632 255.53122698 168.85031128 255.53828049 C175.34439088 255.54756083 181.83832169 255.54097695 188.33239365 255.52359772 C190.72094301 255.51961862 193.10950711 255.52079106 195.49805069 255.52738571 C198.74849614 255.53553506 201.99837062 255.52535958 205.2487793 255.51034546 C206.68003474 255.52038371 206.68003474 255.52038371 208.14020443 255.53062475 C209.00820958 255.52280151 209.87621473 255.51497826 210.77052307 255.50691795 C211.89642271 255.50618737 211.89642271 255.50618737 213.04506779 255.50544202 C215.61123361 255.01292579 216.4822524 254.23585111 218.00439453 252.12939453 C218.44834797 250.12634024 218.44834797 250.12634024 218.37353802 247.88714314 C218.37951116 247.01728789 218.38548431 246.14743264 218.39163846 245.25121814 C218.38289993 244.29500149 218.37416141 243.33878483 218.36515808 242.35359192 C218.36772136 241.33830766 218.37028463 240.3230234 218.37292558 239.27697295 C218.37788553 235.85888726 218.36133386 232.44123868 218.3449707 229.02319336 C218.34412491 226.57943228 218.34459864 224.13567043 218.34629822 221.69190979 C218.34698241 216.42242068 218.33844745 211.15306885 218.3215847 205.88361549 C218.29721982 198.26486281 218.28939202 190.64616404 218.28562073 183.02737661 C218.27905229 170.66690219 218.25908051 158.30648711 218.23071289 145.94604492 C218.20318246 133.93790993 218.18194392 121.92979104 218.16918945 109.92163086 C218.16840128 109.18164413 218.16761311 108.44165739 218.16680106 107.67924682 C218.16288599 103.96700915 218.15909486 100.25477137 218.15536535 96.54253352 C218.12425722 65.7381107 218.07118801 34.93376162 218.00439453 4.12939453 C212.56715414 1.86994359 207.694911 1.85061334 201.91252136 1.88215637 C200.89946295 1.87974196 199.88640453 1.87732754 198.84264737 1.87483996 C195.45012696 1.86920684 192.05779515 1.87786318 188.6652832 1.88647461 C186.2325536 1.88540166 183.79982424 1.8834628 181.36709595 1.88072205 C175.44794951 1.8763772 169.5288539 1.88131207 163.60971715 1.89057235 C156.71986429 1.90096366 149.83002348 1.90088599 142.94016425 1.90039977 C130.65239911 1.89989945 118.36466003 1.9090542 106.0769043 1.92358398 C94.1446078 1.93768619 82.21233424 1.94475408 70.2800293 1.9440918 C69.54438313 1.94405184 68.80873697 1.94401188 68.0507985 1.94397072 C67.31644014 1.94393036 66.58208179 1.94389001 65.82547015 1.94384843 C52.24747295 1.94315943 38.66948552 1.94904179 25.09149149 1.95800165 C20.28436933 1.96102261 15.47724896 1.96208173 10.67012596 1.96253395 C4.20970773 1.96328546 -2.25069105 1.96960925 -8.71110153 1.97970009 C-11.08920709 1.98263321 -13.46731545 1.98384883 -15.84542274 1.98327255 C-19.0765249 1.98278565 -22.30755794 1.98839983 -25.53865051 1.99568176 C-26.49270918 1.99413316 -27.44676785 1.99258456 -28.42973739 1.99098903 C-32.53720724 1.58627356 -32.53720724 1.58627356 -35.99560547 3.12939453 Z " fill="#747474" transform="translate(36.99560546875,-0.12939453125)"/>
<path d="M0 0 C0.33 0 0.66 0 1 0 C1.06839432 31.5426571 1.12150654 63.08529316 1.15319599 94.62800704 C1.15694824 98.34941693 1.1608312 102.07082666 1.16479492 105.79223633 C1.16558185 106.53312186 1.16636878 107.27400739 1.16717956 108.037344 C1.18024399 120.04367976 1.20390352 132.04997255 1.23145839 144.0562828 C1.25948378 156.37003973 1.27617018 168.68377412 1.28226548 180.99756163 C1.2863879 188.599734 1.29942185 196.20178494 1.3237494 203.80391993 C1.3414379 209.62699797 1.34337288 215.45001323 1.33932304 221.27311897 C1.3401514 223.66651407 1.34615869 226.05991358 1.35761642 228.4532814 C1.37245025 231.71042561 1.36898685 234.96704203 1.36076355 238.22419739 C1.36950207 239.18041404 1.3782406 240.13663069 1.38724393 241.12182361 C1.38127078 241.99167886 1.37529764 242.86153411 1.36914349 243.7577486 C1.37028265 244.50997458 1.37142181 245.26220055 1.37259549 246.03722125 C0.8846758 248.60751111 0.10891023 249.4762376 -2 251 C-3.96047741 251.37604749 -3.96047741 251.37604749 -6.23666477 251.37752342 C-7.10528662 251.38534666 -7.97390847 251.39316991 -8.8688522 251.40123022 C-10.30113082 251.39119197 -10.30113082 251.39119197 -11.76234436 251.38095093 C-12.77621749 251.3856309 -13.79009062 251.39031087 -14.83468717 251.39513266 C-18.24807696 251.40714389 -21.66106979 251.39760141 -25.07446289 251.38818359 C-27.51498144 251.39224654 -29.95549815 251.39758685 -32.39601135 251.40411377 C-38.34601811 251.41639997 -44.2958678 251.41456495 -50.24586851 251.40587585 C-55.07988595 251.39910794 -59.91387156 251.3981787 -64.74789238 251.4014473 C-65.43519805 251.401907 -66.12250372 251.40236669 -66.83063684 251.40284032 C-68.22675679 251.40379947 -69.62287672 251.40477211 -71.01899665 251.4057581 C-84.11743817 251.4143175 -97.21581676 251.40446892 -110.31424796 251.388357 C-121.56182507 251.37495032 -132.80930932 251.3772837 -144.05688477 251.39111328 C-157.10915912 251.40715426 -170.1613783 251.41349663 -183.21366113 251.40427649 C-184.60441521 251.40332081 -185.99516929 251.4023777 -187.38592339 251.4014473 C-188.07025634 251.40098447 -188.7545893 251.40052164 -189.45965962 251.40004479 C-194.29033545 251.39745067 -199.12097638 251.4018349 -203.9516468 251.40888596 C-210.44818564 251.4181599 -216.94457562 251.41159304 -223.4411068 251.39420319 C-225.83168876 251.39022116 -228.22228544 251.39140145 -230.61286163 251.39799118 C-233.86365744 251.40612902 -237.11388047 251.39597934 -240.36463928 251.38095093 C-241.32172242 251.38764309 -242.27880555 251.39433526 -243.26489121 251.40123022 C-244.13090531 251.39340697 -244.99691941 251.38558373 -245.88917637 251.37752342 C-246.64015585 251.37703637 -247.39113532 251.37654931 -248.16487175 251.37604749 C-250 251 -250 251 -252 248 C-249.23274864 247.07758288 -247.6092412 246.87551275 -244.7577486 246.87695217 C-243.45296573 246.8739656 -243.45296573 246.8739656 -242.12182361 246.87091869 C-240.68749863 246.87528795 -240.68749863 246.87528795 -239.22419739 246.87974548 C-238.20891313 246.87889106 -237.19362887 246.87803663 -236.14757842 246.87715632 C-232.7296342 246.87550307 -229.31173856 246.88102039 -225.89379883 246.88647461 C-223.45003765 246.88675654 -221.00627639 246.88659863 -218.56251526 246.8860321 C-213.29307742 246.88580404 -208.02365483 246.88864905 -202.75422096 246.89426994 C-195.13547396 246.90239156 -187.51673295 246.90500084 -179.89798208 246.90625793 C-167.53753479 246.90844741 -155.1770941 246.91510467 -142.81665039 246.92456055 C-130.8085127 246.93373736 -118.80037681 246.94080541 -106.79223633 246.94506836 C-106.04469957 246.94533636 -105.29716281 246.94560435 -104.52697343 246.94588047 C-98.02463929 246.94819327 -91.52230509 246.95034609 -85.01997089 246.95248318 C-57.01330772 246.96189549 -29.00666203 246.98181517 -1 247 C-0.505 124.735 -0.505 124.735 0 0 Z " fill="#191A19" transform="translate(254,4)"/>
<path d="M0 0 C31.28787945 -0.02279822 62.57575672 -0.04050224 93.8636425 -0.05106533 C97.55500973 -0.05231608 101.24637694 -0.0536104 104.93774414 -0.05493164 C105.67264844 -0.05519395 106.40755275 -0.05545626 107.16472688 -0.05572652 C119.07404447 -0.0600813 130.98335725 -0.0679678 142.89267198 -0.0771528 C155.1069902 -0.08649466 167.3213059 -0.09205674 179.53562754 -0.09408849 C187.07633398 -0.09546261 194.61702681 -0.09980721 202.15772905 -0.10791647 C207.93379544 -0.11381273 213.70985306 -0.1144576 219.48592186 -0.11310768 C221.8599595 -0.1133838 224.23399764 -0.11538613 226.60803223 -0.11920547 C229.83874915 -0.12415002 233.06940695 -0.12299542 236.30012512 -0.12025452 C237.24855988 -0.12316736 238.19699463 -0.1260802 239.17416984 -0.12908131 C240.0370583 -0.12709026 240.89994675 -0.12509921 241.78898335 -0.12304783 C242.53513379 -0.12342755 243.28128424 -0.12380727 244.05004531 -0.1241985 C246 -0 246 -0 249 1 C249.04559664 32.03308709 249.08100459 63.06616534 249.10213066 94.09927796 C249.10463216 97.76060268 249.1072208 101.42192733 249.10986328 105.08325195 C249.1103879 105.81217503 249.11091252 106.5410981 249.11145304 107.29210975 C249.12016255 119.1044372 249.13593552 130.91674524 249.15430559 142.72906116 C249.17298947 154.84393738 249.18411351 166.95880342 249.18817699 179.07369345 C249.1909252 186.55299894 249.19961422 194.03224957 249.21583293 201.51153817 C249.22762568 207.24060892 249.22891518 212.96964428 249.22621536 218.69872475 C249.22676758 221.05341429 249.23077215 223.40810583 249.23841095 225.76278305 C249.24830057 228.96728411 249.24599081 232.17154676 249.24050903 235.37605286 C249.24633472 236.31670572 249.2521604 237.25735858 249.25816262 238.22651607 C249.25418052 239.08243773 249.25019842 239.9383594 249.24609566 240.82021809 C249.2468551 241.56029301 249.24761454 242.30036793 249.24839699 243.06286937 C249 245 249 245 247 248 C246.67 167.15 246.34 86.3 246 3 C164.49 2.67 82.98 2.34 -1 2 C-0.67 1.34 -0.34 0.68 0 0 Z " fill="#180B17" transform="translate(5,3)"/>
<path d="M0 0 C0.66 0 1.32 0 2 0 C2.04559664 31.03308709 2.08100459 62.06616534 2.10213066 93.09927796 C2.10463216 96.76060268 2.1072208 100.42192733 2.10986328 104.08325195 C2.1103879 104.81217503 2.11091252 105.5410981 2.11145304 106.29210975 C2.12016255 118.1044372 2.13593552 129.91674524 2.15430559 141.72906116 C2.17298947 153.84393738 2.18411351 165.95880342 2.18817699 178.07369345 C2.1909252 185.55299894 2.19961422 193.03224957 2.21583293 200.51153817 C2.22762568 206.24060892 2.22891518 211.96964428 2.22621536 217.69872475 C2.22676758 220.05341429 2.23077215 222.40810583 2.23841095 224.76278305 C2.24830057 227.96728411 2.24599081 231.17154676 2.24050903 234.37605286 C2.24633472 235.31670572 2.2521604 236.25735858 2.25816262 237.22651607 C2.25418052 238.08243773 2.25019842 238.9383594 2.24609566 239.82021809 C2.24723482 240.93033047 2.24723482 240.93033047 2.24839699 242.06286937 C2 244 2 244 0 247 C-0.15020723 215.67810054 -0.29531217 184.35618255 -0.4332476 153.03422684 C-0.4495195 149.34028192 -0.46583511 145.64633719 -0.48217773 141.95239258 C-0.48543066 141.21696365 -0.48868358 140.48153473 -0.49203508 139.72382008 C-0.54487959 127.80020693 -0.60126915 115.87661302 -0.6589582 103.95302243 C-0.7180299 91.72742881 -0.77331665 79.50182234 -0.82505554 67.27619547 C-0.85712723 59.72625716 -0.89218656 52.17634466 -0.93101191 44.62643801 C-0.96041754 38.84692776 -0.98456902 33.067405 -1.00670624 27.28786278 C-1.016651 24.90975277 -1.02833392 22.53164933 -1.04183006 20.15355682 C-1.05991637 16.92215898 -1.07191208 13.69079623 -1.08229065 10.45936584 C-1.08909444 9.50510541 -1.09589823 8.55084497 -1.10290819 7.56766754 C-1.10671242 5.37817961 -1.05930301 3.18868797 -1 1 C-0.67 0.67 -0.34 0.34 0 0 Z " fill="#090B09" transform="translate(252,4)"/>
<path d="M0 0 C1.65 0 3.3 0 5 0 C5 84.15 5 168.3 5 255 C3.35 255 1.7 255 0 255 C0.73071433 254.31553472 0.73071433 254.31553472 1.47619057 253.61724186 C3.82284066 249.58671762 3.41320387 245.7087227 3.38095093 241.12413025 C3.3856309 240.11010826 3.39031087 239.09608627 3.39513266 238.05133635 C3.4071272 234.64338598 3.39760785 231.23583442 3.38818359 227.82788086 C3.39224728 225.38883733 3.39758801 222.94979563 3.40411377 220.51075745 C3.41639255 214.56792363 3.4145688 208.62519392 3.40587585 202.68236297 C3.39910451 197.85362212 3.39818019 193.02491313 3.4014473 188.1961689 C3.401907 187.50928744 3.40236669 186.82240598 3.40284032 186.11470993 C3.40379948 184.71939725 3.40477212 183.32408458 3.4057581 181.92877192 C3.41431494 168.84174108 3.40447293 155.75477326 3.388357 142.66775275 C3.37495054 131.4330113 3.37728401 120.19836282 3.39111328 108.96362305 C3.40715877 95.92231879 3.41349409 82.88106977 3.40427649 69.83975703 C3.40332082 68.44984314 3.40237771 67.05992924 3.4014473 65.67001534 C3.40075306 64.64416945 3.40075306 64.64416945 3.40004479 63.5975994 C3.39745202 58.77289213 3.401832 53.94821984 3.40888596 49.12351799 C3.41816595 42.63352898 3.41158293 36.14368886 3.39420319 29.6537075 C3.39022411 27.26676985 3.3913965 24.87981745 3.39799118 22.49288559 C3.40614049 19.24468304 3.39596515 15.99705186 3.38095093 12.74888611 C3.38764309 11.79539793 3.39433526 10.84190976 3.40123022 9.85952801 C3.39340697 8.99213955 3.38558373 8.1247511 3.37752342 7.23107815 C3.37679284 6.10599162 3.37679284 6.10599162 3.37604749 4.95817608 C2.90182344 2.48876938 1.89654685 1.58716155 0 0 Z " fill="#A1A1A1" transform="translate(251,1)"/>
<path d="M0 0 C0.33 0 0.66 0 1 0 C1.00364563 0.83049866 1.00729126 1.66099731 1.01104736 2.5166626 C1.0489193 10.34464448 1.10576256 18.17220939 1.18390274 25.999897 C1.22340667 30.02419919 1.25558057 34.04828163 1.27099609 38.07275391 C1.2861439 41.95689241 1.32055486 45.84042688 1.36830902 49.72429657 C1.38314242 51.20579528 1.39104214 52.68738022 1.39188385 54.16895294 C1.3942496 56.24512571 1.42129206 58.31962377 1.45410156 60.39550781 C1.46298401 61.57687317 1.47186646 62.75823853 1.48101807 63.97540283 C2.09701772 67.56541375 3.21027831 68.74762605 6 71 C4.33388095 71.042721 2.66617115 71.04063832 1 71 C0 70 0 70 -0.12025452 67.22227478 C-0.11803391 65.98095291 -0.11581329 64.73963104 -0.11352539 63.46069336 C-0.11367142 62.77779739 -0.11381744 62.09490143 -0.1139679 61.39131165 C-0.11326876 59.12412386 -0.1054764 56.85701726 -0.09765625 54.58984375 C-0.09579207 53.02185613 -0.09436817 51.45386793 -0.09336853 49.88587952 C-0.08954334 45.75123497 -0.07971306 41.61662534 -0.06866455 37.48199463 C-0.05845044 33.26599602 -0.05387091 29.04999178 -0.04882812 24.83398438 C-0.03809079 16.55597353 -0.02101436 8.2779911 0 0 Z " fill="#9F9F9F" transform="translate(0,185)"/>
<path d="M0 0 C0.33 0 0.66 0 1 0 C1 13.86 1 27.72 1 42 C-0.65 42 -2.3 42 -4 42 C-3.2733313 41.27925293 -3.2733313 41.27925293 -2.53198242 40.54394531 C-0.34875227 36.91856552 -0.52072137 33.41188766 -0.48828125 29.296875 C-0.47033005 28.45908508 -0.45237885 27.62129517 -0.43388367 26.75811768 C-0.37980944 24.08879593 -0.34589468 21.41965269 -0.3125 18.75 C-0.27932432 16.93747518 -0.24483443 15.1249739 -0.20898438 13.3125 C-0.12408477 8.87512886 -0.05726003 4.43781039 0 0 Z " fill="#AFAFAF" transform="translate(255,214)"/>
<path d="M0 0 C0.33 0 0.66 0 1 0 C1.0093457 0.55461914 1.01869141 1.10923828 1.02832031 1.68066406 C1.08215722 4.20466481 1.16577254 6.72683814 1.25 9.25 C1.26417969 10.12269531 1.27835937 10.99539062 1.29296875 11.89453125 C1.44166706 17.15509374 1.44166706 17.15509374 4.046875 21.609375 C4.69140625 22.06828125 5.3359375 22.5271875 6 23 C4.33388095 23.042721 2.66617115 23.04063832 1 23 C-0 22 -0 22 -0.11352539 19.86694336 C-0.10828857 18.95050049 -0.10305176 18.03405762 -0.09765625 17.08984375 C-0.09443359 16.10048828 -0.09121094 15.11113281 -0.08789062 14.09179688 C-0.07951172 13.05087891 -0.07113281 12.00996094 -0.0625 10.9375 C-0.05798828 9.89271484 -0.05347656 8.84792969 -0.04882812 7.77148438 C-0.03699913 5.1809334 -0.02051689 2.59049441 0 0 Z " fill="#B1B1B1" transform="translate(0,233)"/>
<path d="M0 0 C1.65 0 3.3 0 5 0 C5 6.93 5 13.86 5 21 C4.67 21 4.34 21 4 21 C3.96261719 19.73542969 3.92523438 18.47085937 3.88671875 17.16796875 C3.82106167 15.5077827 3.75461424 13.84762778 3.6875 12.1875 C3.66494141 11.35412109 3.64238281 10.52074219 3.61914062 9.66210938 C3.58369141 8.85966797 3.54824219 8.05722656 3.51171875 7.23046875 C3.48553467 6.49207764 3.45935059 5.75368652 3.43237305 4.99291992 C2.89767037 2.52833609 1.90034653 1.59947676 0 0 Z " fill="#BEBEBE" transform="translate(251,1)"/>
</svg>
