<svg width="50" height="50" viewBox="0 0 50 50" fill="none" xmlns="http://www.w3.org/2000/svg">
<rect width="50" height="50" rx="8.57143" fill="url(#paint0_linear_5126_4279)"/>
<path d="M32.966 29.7474C32.9658 29.7472 32.9662 29.7469 32.9664 29.747C33.0823 29.8209 33.2152 29.8775 33.3111 29.971C34.9657 31.5845 36.6161 33.2021 38.2672 34.8197C38.8348 35.376 38.8334 35.8885 38.2659 36.4475C38.0639 36.6457 37.8612 36.8439 37.6591 37.0422C37.0401 37.6483 36.5357 37.6524 35.9235 37.0523C34.2566 35.4192 32.5869 33.7881 30.9296 32.1462C30.7097 31.9284 30.5737 31.8792 30.2816 32.0693C27.9083 33.6155 25.2808 34.2331 22.4561 33.9728C17.1427 33.4833 12.7383 29.5347 11.8066 24.3717C10.5835 17.5939 15.1933 11.8463 21.286 10.6454C27.841 9.35347 34.3858 13.6628 35.5002 20.0914C36.0953 23.5208 35.3401 26.6528 33.186 29.4403C33.1448 29.4936 33.1036 29.5475 33.0658 29.6035C33.0575 29.6155 33.0551 29.6315 33.0524 29.6473C33.0503 29.6597 33.0439 29.6709 33.0348 29.6797C33.012 29.7021 32.9893 29.7246 32.9665 29.7475C32.9663 29.7476 32.9661 29.7476 32.966 29.7474ZM15.9169 22.3894C15.9285 24.8855 16.6404 27.0581 18.2689 28.8995C19.5318 30.327 21.1142 31.2157 23.0498 31.3796C25.1482 31.5576 26.9821 30.8813 28.478 29.4477C30.8052 27.2192 31.6112 24.4506 31.3034 21.328C31.1075 19.343 30.3648 17.577 29.0283 16.0673C27.806 14.6864 26.2813 13.7923 24.4151 13.6028C21.892 13.3472 19.8224 14.2811 18.1946 16.1475C16.6143 17.9607 15.932 20.1035 15.9169 22.3887V22.3894Z" fill="white"/>
<defs>
<linearGradient id="paint0_linear_5126_4279" x1="2.83333" y1="4.44444" x2="54.9777" y2="22.2209" gradientUnits="userSpaceOnUse">
<stop stop-color="#FF3893"/>
<stop offset="1" stop-color="#E8006A"/>
</linearGradient>
</defs>
</svg>
